# xmcd
#
# Track frame offsets:
#	153
#	2599
#	19969
#	36898
#	54719
#	73740
#	92754
#	108129
#	125109
#	140396
#	155567
#	172133
#	190527
#	208985
#	224080
#	241172
#	259004
#	279303
#	297084
#	316446
#	332811
#
# Disc length: 4595 seconds
# Revision: 0
# Processed by: cddbd v1.5.2PL0 Copyright (c) Steve Scherf et al.
# Submitted via: dBpowerAMP V12.0
#
DISCID=4211f115
DTITLE=Various Artist - Kingdom Business Pt2
DYEAR=2009
DGENRE=Hip Hop
TTITLE0=CAJO International and Coco Brother - Intro
TTITLE1=Canton Jones - Not About They
TTITLE2=Canton Jones featuring Vic - So Bad
TTITLE3=Ramona Jones, Joy Hamilton, Milliyon, Mouthpiece and Erica Cumbo - Great Things
TTITLE4=Milliyon - Jus' Swaggin'
TTITLE5=Canton Jones featuring Big Ran - G.O.D. Remix
TTITLE6=Canton Jones, Erica Cumbo, BB Jay and Messenja - You Got Me
TTITLE7=Canton Jones featuring Monty G - Top Model
TTITLE8=Erica Cumbo - After Party
TTITLE9=Canton Jones, Milliyon, Ramona Jones and Erica Cumbo - My Year
TTITLE10=Buddy Crunk, Messenja and Canton Jones - Swagg And Pose
TTITLE11=Canton Jones - Echo
TTITLE12=Ramona Jones - Around The World
TTITLE13=Canton Jones - Hello Sunshine
TTITLE14=Clarence Jones, Canton Jones and Ramona Jones - Jesus In The Light
TTITLE15=Milliyon - Lord I Worship
TTITLE16=Canton Jones and Milliyon - 5 Seconds
TTITLE17=La Familia, Canton Jones and Messenja - You Tube Page
TTITLE18=Messenja - Take The City
TTITLE19=Erica Cumbo - Halle'
TTITLE20=CAJO International and Coco Brother - One Mic
EXTD=
EXTT0=
EXTT1=
EXTT2=
EXTT3=
EXTT4=
EXTT5=
EXTT6=
EXTT7=
EXTT8=
EXTT9=
EXTT10=
EXTT11=
EXTT12=
EXTT13=
EXTT14=
EXTT15=
EXTT16=
EXTT17=
EXTT18=
EXTT19=
EXTT20=
PLAYORDER=
